<?xml version="1.0"?>
<svg xmlns="http://www.w3.org/2000/svg" version="1.2" baseProfile="tiny" width="800" height="300" viewBox="0 0 800 270" stroke-linecap="round" stroke-linejoin="round">
  <g id="0087-474239-BV_tracks" fill="none" stroke="black" stroke-width="1">
    <path d="M 618.2174 88.6522 799 269.4348" stroke="grey" stroke-width="0.5" />
    <path d="M 603.6087 88.6522 589 74.0435 589 59.4348 574.3913 44.8261" stroke="grey" stroke-width="0.5" />
    <path d="M 537.8696 44.8261 523.2609 59.4348 523.2609 74.0435 508.6522 88.6522" stroke="grey" stroke-width="0.5" />
    <path d="M 505 44.8261 490.3913 30.2174 490.3913 22.913 490.3913 15.6087 475.7826 1 439.2609 1 274.913 1 260.3043 15.6087 260.3043 30.2174 245.6957 44.8261" stroke="grey" stroke-width="0.5" />
    <path d="M 337 88.6522 329.6957 95.9565 329.6957 103.2609 322.3913 110.5652 63.087 110.5652 55.7826 103.2609 55.7826 95.9565 48.4783 88.6522" stroke="grey" stroke-width="0.5" />
    <path d="M 428.3043 15.6087 421 8.3043" stroke="grey" stroke-width="0.5" />
    <path d="M 413.6957 8.3043 421 15.6087 428.3043 22.913" stroke="grey" stroke-width="0.5" />
    <path d="M 413.6957 15.6087 406.3913 8.3043" stroke="grey" stroke-width="0.5" />
    <path d="M 406.3913 15.6087 399.087 8.3043" stroke="grey" stroke-width="0.5" />
    <path d="M 399.087 15.6087 391.7826 8.3043" stroke="grey" stroke-width="0.5" />
    <path d="M 391.7826 15.6087 384.4783 8.3043" stroke="grey" stroke-width="0.5" />
    <path d="M 384.4783 15.6087 377.1739 8.3043" stroke="grey" stroke-width="0.5" />
    <path d="M 377.1739 15.6087 369.8696 8.3043" stroke="grey" stroke-width="0.5" />
    <path d="M 369.8696 15.6087 362.5652 8.3043" stroke="grey" stroke-width="0.5" />
    <path d="M 362.5652 15.6087 355.2609 8.3043" stroke="grey" stroke-width="0.5" />
    <path d="M 355.2609 15.6087 347.9565 8.3043" stroke="grey" stroke-width="0.5" />
    <path d="M 347.9565 15.6087 340.6522 8.3043" stroke="grey" stroke-width="0.5" />
    <path d="M 340.6522 15.6087 333.3478 8.3043" stroke="grey" stroke-width="0.5" />
    <path d="M 333.3478 15.6087 326.0435 8.3043" stroke="grey" stroke-width="0.5" />
    <path d="M 326.0435 15.6087 318.7391 8.3043 318.7391 15.6087 326.0435 22.913" stroke="grey" stroke-width="0.5" />
    <path d="M 318.7391 22.913 326.0435 30.2174 333.3478 37.5217" stroke="grey" stroke-width="0.5" />
    <path d="M 326.0435 37.5217 318.7391 30.2174" stroke="grey" stroke-width="0.5" />
    <path d="M 340.6522 37.5217 333.3478 30.2174" stroke="grey" stroke-width="0.5" />
    <path d="M 347.9565 37.5217 340.6522 30.2174" stroke="grey" stroke-width="0.5" />
    <path d="M 355.2609 37.5217 347.9565 30.2174" stroke="grey" stroke-width="0.5" />
    <path d="M 362.5652 37.5217 355.2609 30.2174" stroke="grey" stroke-width="0.5" />
    <path d="M 369.8696 37.5217 362.5652 30.2174" stroke="grey" stroke-width="0.5" />
    <path d="M 377.1739 37.5217 369.8696 30.2174" stroke="grey" stroke-width="0.5" />
    <path d="M 384.4783 37.5217 377.1739 30.2174" stroke="grey" stroke-width="0.5" />
    <path d="M 391.7826 37.5217 384.4783 30.2174" stroke="grey" stroke-width="0.5" />
    <path d="M 399.087 37.5217 391.7826 30.2174" stroke="grey" stroke-width="0.5" />
    <path d="M 406.3913 37.5217 399.087 30.2174" stroke="grey" stroke-width="0.5" />
    <path d="M 413.6957 37.5217 406.3913 30.2174" stroke="grey" stroke-width="0.5" />
    <path d="M 421 37.5217 413.6957 30.2174" stroke="grey" stroke-width="0.5" />
    <path d="M 421 30.2174 428.3043 37.5217 428.3043 8.3043 318.7391 8.3043" stroke="grey" stroke-width="0.5" />
    <path d="M 428.3043 30.2174 421 22.913" stroke="grey" stroke-width="0.5" />
    <path d="M 337 37.5217 329.6957 30.2174" stroke="grey" stroke-width="0.5" />
    <path d="M 329.6957 37.5217 318.7391 26.5652" stroke="grey" stroke-width="0.5" />
    <path d="M 322.3913 37.5217 318.7391 33.8696" stroke="grey" stroke-width="0.5" />
    <path d="M 326.0435 26.5652 318.7391 19.2609 318.7391 37.5217 428.3043 37.5217" stroke="grey" stroke-width="0.5" />
    <path d="M 326.0435 19.2609 318.7391 11.9565" stroke="grey" stroke-width="0.5" />
    <path d="M 329.6957 15.6087 322.3913 8.3043" stroke="grey" stroke-width="0.5" />
    <path d="M 337 15.6087 329.6957 8.3043" stroke="grey" stroke-width="0.5" />
    <path d="M 344.3043 15.6087 337 8.3043" stroke="grey" stroke-width="0.5" />
    <path d="M 351.6087 15.6087 344.3043 8.3043" stroke="grey" stroke-width="0.5" />
    <path d="M 358.913 15.6087 351.6087 8.3043" stroke="grey" stroke-width="0.5" />
    <path d="M 366.2174 15.6087 358.913 8.3043" stroke="grey" stroke-width="0.5" />
    <path d="M 373.5217 15.6087 366.2174 8.3043" stroke="grey" stroke-width="0.5" />
    <path d="M 380.8261 15.6087 373.5217 8.3043" stroke="grey" stroke-width="0.5" />
    <path d="M 388.1304 15.6087 380.8261 8.3043" stroke="grey" stroke-width="0.5" />
    <path d="M 395.4348 15.6087 388.1304 8.3043" stroke="grey" stroke-width="0.5" />
    <path d="M 402.7391 15.6087 395.4348 8.3043" stroke="grey" stroke-width="0.5" />
    <path d="M 410.0435 15.6087 402.7391 8.3043" stroke="grey" stroke-width="0.5" />
    <path d="M 417.3478 15.6087 410.0435 8.3043" stroke="grey" stroke-width="0.5" />
    <path d="M 428.3043 19.2609 417.3478 8.3043" stroke="grey" stroke-width="0.5" />
    <path d="M 428.3043 11.9565 424.6522 8.3043" stroke="grey" stroke-width="0.5" />
    <path d="M 428.3043 26.5652 421 19.2609" stroke="grey" stroke-width="0.5" />
    <path d="M 428.3043 33.8696 421 26.5652" stroke="grey" stroke-width="0.5" />
    <path d="M 424.6522 37.5217 417.3478 30.2174" stroke="grey" stroke-width="0.5" />
    <path d="M 417.3478 37.5217 410.0435 30.2174" stroke="grey" stroke-width="0.5" />
    <path d="M 410.0435 37.5217 402.7391 30.2174" stroke="grey" stroke-width="0.5" />
    <path d="M 402.7391 37.5217 395.4348 30.2174" stroke="grey" stroke-width="0.5" />
    <path d="M 395.4348 37.5217 388.1304 30.2174" stroke="grey" stroke-width="0.5" />
    <path d="M 388.1304 37.5217 380.8261 30.2174" stroke="grey" stroke-width="0.5" />
    <path d="M 380.8261 37.5217 373.5217 30.2174" stroke="grey" stroke-width="0.5" />
    <path d="M 373.5217 37.5217 366.2174 30.2174" stroke="grey" stroke-width="0.5" />
    <path d="M 366.2174 37.5217 358.913 30.2174" stroke="grey" stroke-width="0.5" />
    <path d="M 358.913 37.5217 351.6087 30.2174" stroke="grey" stroke-width="0.5" />
    <path d="M 351.6087 37.5217 344.3043 30.2174" stroke="grey" stroke-width="0.5" />
    <path d="M 344.3043 37.5217 337 30.2174" stroke="grey" stroke-width="0.5" />
    <path d="M 472.1304 103.2609 464.8261 95.9565" stroke="grey" stroke-width="0.5" />
    <path d="M 457.5217 95.9565 464.8261 103.2609 472.1304 110.5652" stroke="grey" stroke-width="0.5" />
    <path d="M 457.5217 103.2609 450.2174 95.9565" stroke="grey" stroke-width="0.5" />
    <path d="M 450.2174 103.2609 442.913 95.9565" stroke="grey" stroke-width="0.5" />
    <path d="M 442.913 103.2609 435.6087 95.9565" stroke="grey" stroke-width="0.5" />
    <path d="M 435.6087 103.2609 428.3043 95.9565" stroke="grey" stroke-width="0.5" />
    <path d="M 428.3043 103.2609 421 95.9565" stroke="grey" stroke-width="0.5" />
    <path d="M 421 103.2609 413.6957 95.9565" stroke="grey" stroke-width="0.5" />
    <path d="M 413.6957 103.2609 406.3913 95.9565" stroke="grey" stroke-width="0.5" />
    <path d="M 406.3913 103.2609 399.087 95.9565" stroke="grey" stroke-width="0.5" />
    <path d="M 399.087 103.2609 391.7826 95.9565" stroke="grey" stroke-width="0.5" />
    <path d="M 391.7826 103.2609 384.4783 95.9565" stroke="grey" stroke-width="0.5" />
    <path d="M 384.4783 103.2609 377.1739 95.9565" stroke="grey" stroke-width="0.5" />
    <path d="M 377.1739 103.2609 369.8696 95.9565" stroke="grey" stroke-width="0.5" />
    <path d="M 369.8696 103.2609 362.5652 95.9565 362.5652 103.2609 369.8696 110.5652" stroke="grey" stroke-width="0.5" />
    <path d="M 362.5652 110.5652 369.8696 117.8696 377.1739 125.1739" stroke="grey" stroke-width="0.5" />
    <path d="M 369.8696 125.1739 362.5652 117.8696" stroke="grey" stroke-width="0.5" />
    <path d="M 384.4783 125.1739 377.1739 117.8696" stroke="grey" stroke-width="0.5" />
    <path d="M 391.7826 125.1739 384.4783 117.8696" stroke="grey" stroke-width="0.5" />
    <path d="M 399.087 125.1739 391.7826 117.8696" stroke="grey" stroke-width="0.5" />
    <path d="M 406.3913 125.1739 399.087 117.8696" stroke="grey" stroke-width="0.5" />
    <path d="M 413.6957 125.1739 406.3913 117.8696" stroke="grey" stroke-width="0.5" />
    <path d="M 421 125.1739 413.6957 117.8696" stroke="grey" stroke-width="0.5" />
    <path d="M 428.3043 125.1739 421 117.8696" stroke="grey" stroke-width="0.5" />
    <path d="M 435.6087 125.1739 428.3043 117.8696" stroke="grey" stroke-width="0.5" />
    <path d="M 442.913 125.1739 435.6087 117.8696" stroke="grey" stroke-width="0.5" />
    <path d="M 450.2174 125.1739 442.913 117.8696" stroke="grey" stroke-width="0.5" />
    <path d="M 457.5217 125.1739 450.2174 117.8696" stroke="grey" stroke-width="0.5" />
    <path d="M 464.8261 125.1739 457.5217 117.8696" stroke="grey" stroke-width="0.5" />
    <path d="M 464.8261 117.8696 472.1304 125.1739 472.1304 95.9565 362.5652 95.9565" stroke="grey" stroke-width="0.5" />
    <path d="M 472.1304 117.8696 464.8261 110.5652" stroke="grey" stroke-width="0.5" />
    <path d="M 380.8261 125.1739 373.5217 117.8696" stroke="grey" stroke-width="0.5" />
    <path d="M 373.5217 125.1739 362.5652 114.2174" stroke="grey" stroke-width="0.5" />
    <path d="M 366.2174 125.1739 362.5652 121.5217" stroke="grey" stroke-width="0.5" />
    <path d="M 369.8696 114.2174 362.5652 106.913 362.5652 125.1739 472.1304 125.1739" stroke="grey" stroke-width="0.5" />
    <path d="M 369.8696 106.913 362.5652 99.6087" stroke="grey" stroke-width="0.5" />
    <path d="M 373.5217 103.2609 366.2174 95.9565" stroke="grey" stroke-width="0.5" />
    <path d="M 380.8261 103.2609 373.5217 95.9565" stroke="grey" stroke-width="0.5" />
    <path d="M 388.1304 103.2609 380.8261 95.9565" stroke="grey" stroke-width="0.5" />
    <path d="M 395.4348 103.2609 388.1304 95.9565" stroke="grey" stroke-width="0.5" />
    <path d="M 402.7391 103.2609 395.4348 95.9565" stroke="grey" stroke-width="0.5" />
    <path d="M 410.0435 103.2609 402.7391 95.9565" stroke="grey" stroke-width="0.5" />
    <path d="M 417.3478 103.2609 410.0435 95.9565" stroke="grey" stroke-width="0.5" />
    <path d="M 424.6522 103.2609 417.3478 95.9565" stroke="grey" stroke-width="0.5" />
    <path d="M 431.9565 103.2609 424.6522 95.9565" stroke="grey" stroke-width="0.5" />
    <path d="M 439.2609 103.2609 431.9565 95.9565" stroke="grey" stroke-width="0.5" />
    <path d="M 446.5652 103.2609 439.2609 95.9565" stroke="grey" stroke-width="0.5" />
    <path d="M 453.8696 103.2609 446.5652 95.9565" stroke="grey" stroke-width="0.5" />
    <path d="M 461.1739 103.2609 453.8696 95.9565" stroke="grey" stroke-width="0.5" />
    <path d="M 472.1304 106.913 461.1739 95.9565" stroke="grey" stroke-width="0.5" />
    <path d="M 472.1304 99.6087 468.4783 95.9565" stroke="grey" stroke-width="0.5" />
    <path d="M 472.1304 114.2174 464.8261 106.913" stroke="grey" stroke-width="0.5" />
    <path d="M 472.1304 121.5217 464.8261 114.2174" stroke="grey" stroke-width="0.5" />
    <path d="M 468.4783 125.1739 461.1739 117.8696" stroke="grey" stroke-width="0.5" />
    <path d="M 461.1739 125.1739 453.8696 117.8696" stroke="grey" stroke-width="0.5" />
    <path d="M 453.8696 125.1739 446.5652 117.8696" stroke="grey" stroke-width="0.5" />
    <path d="M 446.5652 125.1739 439.2609 117.8696" stroke="grey" stroke-width="0.5" />
    <path d="M 439.2609 125.1739 431.9565 117.8696" stroke="grey" stroke-width="0.5" />
    <path d="M 431.9565 125.1739 424.6522 117.8696" stroke="grey" stroke-width="0.5" />
    <path d="M 424.6522 125.1739 417.3478 117.8696" stroke="grey" stroke-width="0.5" />
    <path d="M 417.3478 125.1739 410.0435 117.8696" stroke="grey" stroke-width="0.5" />
    <path d="M 410.0435 125.1739 402.7391 117.8696" stroke="grey" stroke-width="0.5" />
    <path d="M 402.7391 125.1739 395.4348 117.8696" stroke="grey" stroke-width="0.5" />
    <path d="M 395.4348 125.1739 388.1304 117.8696" stroke="grey" stroke-width="0.5" />
    <path d="M 388.1304 125.1739 380.8261 117.8696" stroke="grey" stroke-width="0.5" />
    <path d="M 95.9565 110.5652 88.6522 117.8696 88.6522 125.1739 81.3478 132.4783 15.6087 132.4783 15.6087 128.8261" stroke="grey" stroke-width="0.5" />
    <path d="M 15.6087 136.1304 15.6087 132.4783" stroke="grey" stroke-width="0.5" />
    <path d="M 307.7826 110.5652 300.4783 117.8696 300.4783 125.1739 293.1739 132.4783 132.4783 132.4783 125.1739 125.1739 125.1739 117.8696 117.8696 110.5652" stroke="grey" stroke-width="0.5" />
    <path d="M 147.087 132.4783 154.3913 139.7826 161.6957 147.087 161.6957 161.6957 172.6522 172.6522 176.3043 176.3043 318.7391 176.3043" stroke="grey" stroke-width="0.5" />
    <path d="M 318.7391 179.9565 318.7391 172.6522" stroke="grey" stroke-width="0.5" />
    <path d="M 194.5652 176.3043 201.8696 183.6087 201.8696 190.913 209.1739 198.2174 318.7391 198.2174" stroke="grey" stroke-width="0.5" />
    <path d="M 318.7391 201.8696 318.7391 194.5652" stroke="grey" stroke-width="0.5" />
    <path d="M 289.5217 147.087 282.2174 139.7826" stroke="grey" stroke-width="0.5" />
    <path d="M 274.913 139.7826 282.2174 147.087 289.5217 154.3913" stroke="grey" stroke-width="0.5" />
    <path d="M 274.913 147.087 267.6087 139.7826" stroke="grey" stroke-width="0.5" />
    <path d="M 267.6087 147.087 260.3043 139.7826" stroke="grey" stroke-width="0.5" />
    <path d="M 260.3043 147.087 253 139.7826" stroke="grey" stroke-width="0.5" />
    <path d="M 253 147.087 245.6957 139.7826" stroke="grey" stroke-width="0.5" />
    <path d="M 245.6957 147.087 238.3913 139.7826" stroke="grey" stroke-width="0.5" />
    <path d="M 238.3913 147.087 231.087 139.7826" stroke="grey" stroke-width="0.5" />
    <path d="M 231.087 147.087 223.7826 139.7826" stroke="grey" stroke-width="0.5" />
    <path d="M 223.7826 147.087 216.4783 139.7826" stroke="grey" stroke-width="0.5" />
    <path d="M 216.4783 147.087 209.1739 139.7826" stroke="grey" stroke-width="0.5" />
    <path d="M 209.1739 147.087 201.8696 139.7826" stroke="grey" stroke-width="0.5" />
    <path d="M 201.8696 147.087 194.5652 139.7826" stroke="grey" stroke-width="0.5" />
    <path d="M 194.5652 147.087 187.2609 139.7826" stroke="grey" stroke-width="0.5" />
    <path d="M 187.2609 147.087 179.9565 139.7826 179.9565 147.087 187.2609 154.3913" stroke="grey" stroke-width="0.5" />
    <path d="M 179.9565 154.3913 187.2609 161.6957 194.5652 169" stroke="grey" stroke-width="0.5" />
    <path d="M 187.2609 169 179.9565 161.6957" stroke="grey" stroke-width="0.5" />
    <path d="M 201.8696 169 194.5652 161.6957" stroke="grey" stroke-width="0.5" />
    <path d="M 209.1739 169 201.8696 161.6957" stroke="grey" stroke-width="0.5" />
    <path d="M 216.4783 169 209.1739 161.6957" stroke="grey" stroke-width="0.5" />
    <path d="M 223.7826 169 216.4783 161.6957" stroke="grey" stroke-width="0.5" />
    <path d="M 231.087 169 223.7826 161.6957" stroke="grey" stroke-width="0.5" />
    <path d="M 238.3913 169 231.087 161.6957" stroke="grey" stroke-width="0.5" />
    <path d="M 245.6957 169 238.3913 161.6957" stroke="grey" stroke-width="0.5" />
    <path d="M 253 169 245.6957 161.6957" stroke="grey" stroke-width="0.5" />
    <path d="M 260.3043 169 253 161.6957" stroke="grey" stroke-width="0.5" />
    <path d="M 267.6087 169 260.3043 161.6957" stroke="grey" stroke-width="0.5" />
    <path d="M 274.913 169 267.6087 161.6957" stroke="grey" stroke-width="0.5" />
    <path d="M 282.2174 169 274.913 161.6957" stroke="grey" stroke-width="0.5" />
    <path d="M 282.2174 161.6957 289.5217 169 289.5217 139.7826 179.9565 139.7826" stroke="grey" stroke-width="0.5" />
    <path d="M 289.5217 161.6957 282.2174 154.3913" stroke="grey" stroke-width="0.5" />
    <path d="M 198.2174 169 190.913 161.6957" stroke="grey" stroke-width="0.5" />
    <path d="M 190.913 169 179.9565 158.0435" stroke="grey" stroke-width="0.5" />
    <path d="M 183.6087 169 179.9565 165.3478" stroke="grey" stroke-width="0.5" />
    <path d="M 187.2609 158.0435 179.9565 150.7391 179.9565 169 289.5217 169" stroke="grey" stroke-width="0.5" />
    <path d="M 187.2609 150.7391 179.9565 143.4348" stroke="grey" stroke-width="0.5" />
    <path d="M 190.913 147.087 183.6087 139.7826" stroke="grey" stroke-width="0.5" />
    <path d="M 198.2174 147.087 190.913 139.7826" stroke="grey" stroke-width="0.5" />
    <path d="M 205.5217 147.087 198.2174 139.7826" stroke="grey" stroke-width="0.5" />
    <path d="M 212.8261 147.087 205.5217 139.7826" stroke="grey" stroke-width="0.5" />
    <path d="M 220.1304 147.087 212.8261 139.7826" stroke="grey" stroke-width="0.5" />
    <path d="M 227.4348 147.087 220.1304 139.7826" stroke="grey" stroke-width="0.5" />
    <path d="M 234.7391 147.087 227.4348 139.7826" stroke="grey" stroke-width="0.5" />
    <path d="M 242.0435 147.087 234.7391 139.7826" stroke="grey" stroke-width="0.5" />
    <path d="M 249.3478 147.087 242.0435 139.7826" stroke="grey" stroke-width="0.5" />
    <path d="M 256.6522 147.087 249.3478 139.7826" stroke="grey" stroke-width="0.5" />
    <path d="M 263.9565 147.087 256.6522 139.7826" stroke="grey" stroke-width="0.5" />
    <path d="M 278.5652 147.087 271.2609 139.7826" stroke="grey" stroke-width="0.5" />
    <path d="M 289.5217 150.7391 278.5652 139.7826" stroke="grey" stroke-width="0.5" />
    <path d="M 289.5217 143.4348 285.8696 139.7826" stroke="grey" stroke-width="0.5" />
    <path d="M 289.5217 158.0435 282.2174 150.7391" stroke="grey" stroke-width="0.5" />
    <path d="M 289.5217 165.3478 282.2174 158.0435" stroke="grey" stroke-width="0.5" />
    <path d="M 285.8696 169 278.5652 161.6957" stroke="grey" stroke-width="0.5" />
    <path d="M 278.5652 169 271.2609 161.6957" stroke="grey" stroke-width="0.5" />
    <path d="M 271.2609 169 263.9565 161.6957" stroke="grey" stroke-width="0.5" />
    <path d="M 263.9565 169 256.6522 161.6957" stroke="grey" stroke-width="0.5" />
    <path d="M 256.6522 169 249.3478 161.6957" stroke="grey" stroke-width="0.5" />
    <path d="M 249.3478 169 242.0435 161.6957" stroke="grey" stroke-width="0.5" />
    <path d="M 242.0435 169 234.7391 161.6957" stroke="grey" stroke-width="0.5" />
    <path d="M 234.7391 169 227.4348 161.6957" stroke="grey" stroke-width="0.5" />
    <path d="M 227.4348 169 220.1304 161.6957" stroke="grey" stroke-width="0.5" />
    <path d="M 220.1304 169 212.8261 161.6957" stroke="grey" stroke-width="0.5" />
    <path d="M 212.8261 169 205.5217 161.6957" stroke="grey" stroke-width="0.5" />
    <path d="M 205.5217 169 198.2174 161.6957" stroke="grey" stroke-width="0.5" />
    <path d="M 143.4348 44.8261 128.8261 59.4348 128.8261 63.087 128.8261 74.0435 114.2174 88.6522" stroke="grey" stroke-width="0.5" />
    <path d="M 1 95.9565 8.3043 88.6522 799 88.6522" stroke="grey" stroke-width="0.5" />
    <path d="M 1 44.8261 799 44.8261" stroke="grey" stroke-width="0.5" />
    <path d="M 271.2609 147.087 263.9565 139.7826" stroke="grey" stroke-width="0.5" />
    <path d="M 318.7391 15.6087 318.7391 19.2609" stroke="grey" stroke-width="0.5" />
    <path d="M 362.5652 103.2609 362.5652 106.913" stroke="grey" stroke-width="0.5" />
    <path d="M 179.9565 147.087 179.9565 150.7391" stroke="grey" stroke-width="0.5" />
  </g>
  <g id="0087-474239-BV_places" font-family="sans-serif" font-size="12" text-anchor="middle">
    <g text-anchor="start" fill="black" font-size="11.399999999999999" font-weight="bold">
      <circle cx="433.7826" cy="88.6522" r="3.79" />
      <text y="3.79" x="3.79" transform="translate(433.7826 88.6522)">LDE1</text>
    </g>
    <g text-anchor="start" fill="black" font-size="11.399999999999999" font-weight="bold">
      <circle cx="368.0435" cy="44.8261" r="3.79" />
      <text y="3.79" x="3.79" transform="translate(368.0435 44.8261)">LDE2</text>
    </g>
    <g text-anchor="start" fill="black" font-size="11.399999999999999" font-weight="bold">
      <circle cx="366.2174" cy="1" r="3.79" />
      <text y="3.79" x="3.79" transform="translate(366.2174 1)">LDE4</text>
    </g>
  </g>
</svg>
